[Header]
FileType HTR
DataType HTRS
FileVersion 1
NumSegments 64
NumFrames 4
DataFrameRate 30
EulerRotationOrder ZYX
CalibrationUnits mm
RotationUnits Degrees
GlobalAxisofGravity Y
BoneLengthAxis Y
ScaleFactor 1.0
[SegmentNames&Hierarchy]
Hips	GLOBAL
Spine	Hips
Spine1	Spine
Spine2	Spine1
Neck	Spine2
Head	Neck
LeftEye	Head
RightEye	Head
LeftShoulder	Spine2
LeftArm	LeftShoulder
LeftForeArm	LeftArm
LeftHand	LeftForeArm
LeftHandThumb1	LeftHand
LeftHandThumb2	LeftHandThumb1
LeftHandThumb3	LeftHandThumb2
LeftHandThumb4	LeftHandThumb3
LeftHandIndex1	LeftHand
LeftHandIndex2	LeftHandIndex1
LeftHandIndex3	LeftHandIndex2
LeftHandIndex4	LeftHandIndex3
LeftHandMiddle1	LeftHand
LeftHandMiddle2	LeftHandMiddle1
LeftHandMiddle3	LeftHandMiddle2
LeftHandMiddle4	LeftHandMiddle3
LeftHandRing1	LeftHand
LeftHandRing2	LeftHandRing1
LeftHandRing3	LeftHandRing2
LeftHandRing4	LeftHandRing3
LeftHandPinky1	LeftHand
LeftHandPinky2	LeftHandPinky1
LeftHandPinky3	LeftHandPinky2
LeftHandPinky4	LeftHandPinky3
RightShoulder	Spine2
RightArm	RightShoulder
RightForeArm	RightArm
RightHand	RightForeArm
RightHandPinky1	RightHand
RightHandPinky2	RightHandPinky1
RightHandPinky3	RightHandPinky2
RightHandPinky4	RightHandPinky3
RightHandRing1	RightHand
RightHandRing2	RightHandRing1
RightHandRing3	RightHandRing2
RightHandRing4	RightHandRing3
RightHandMiddle1	RightHand
RightHandMiddle2	RightHandMiddle1
RightHandMiddle3	RightHandMiddle2
RightHandMiddle4	RightHandMiddle3
RightHandIndex1	RightHand
RightHandIndex2	RightHandIndex1
RightHandIndex3	RightHandIndex2
RightHandIndex4	RightHandIndex3
RightHandThumb1	RightHand
RightHandThumb2	RightHandThumb1
RightHandThumb3	RightHandThumb2
RightHandThumb4	RightHandThumb3
LeftUpLeg	Hips
LeftLeg	LeftUpLeg
LeftFoot	LeftLeg
LeftToeBase	LeftFoot
RightUpLeg	Hips
RightLeg	RightUpLeg
RightFoot	RightLeg
RightToeBase	RightFoot
[BasePosition]
Hips	0	0	0	0	0	0	1
Spine	0	0	0	0	0	0	1
Spine1	0	0	0	0	0	0	1
Spine2	0	0	0	0	0	0	1
Neck	0	0	0	0	0	0	1
Head	0	0	0	0	0	0	1
LeftEye	0	0	0	0	0	0	1
RightEye	0	0	0	0	0	0	1
LeftShoulder	0	0	0	0	0	0	1
LeftArm	0	0	0	0	0	0	1
LeftForeArm	0	0	0	0	0	0	1
LeftHand	0	0	0	0	0	0	1
LeftHandThumb1	0	0	0	0	0	0	1
LeftHandThumb2	0	0	0	0	0	0	1
LeftHandThumb3	0	0	0	0	0	0	1
LeftHandThumb4	0	0	0	0	0	0	1
LeftHandIndex1	0	0	0	0	0	0	1
LeftHandIndex2	0	0	0	0	0	0	1
LeftHandIndex3	0	0	0	0	0	0	1
LeftHandIndex4	0	0	0	0	0	0	1
LeftHandMiddle1	0	0	0	0	0	0	1
LeftHandMiddle2	0	0	0	0	0	0	1
LeftHandMiddle3	0	0	0	0	0	0	1
LeftHandMiddle4	0	0	0	0	0	0	1
LeftHandRing1	0	0	0	0	0	0	1
LeftHandRing2	0	0	0	0	0	0	1
LeftHandRing3	0	0	0	0	0	0	1
LeftHandRing4	0	0	0	0	0	0	1
LeftHandPinky1	0	0	0	0	0	0	1
LeftHandPinky2	0	0	0	0	0	0	1
LeftHandPinky3	0	0	0	0	0	0	1
LeftHandPinky4	0	0	0	0	0	0	1
RightShoulder	0	0	0	0	0	0	1
RightArm	0	0	0	0	0	0	1
RightForeArm	0	0	0	0	0	0	1
RightHand	0	0	0	0	0	0	1
RightHandPinky1	0	0	0	0	0	0	1
RightHandPinky2	0	0	0	0	0	0	1
RightHandPinky3	0	0	0	0	0	0	1
RightHandPinky4	0	0	0	0	0	0	1
RightHandRing1	0	0	0	0	0	0	1
RightHandRing2	0	0	0	0	0	0	1
RightHandRing3	0	0	0	0	0	0	1
RightHandRing4	0	0	0	0	0	0	1
RightHandMiddle1	0	0	0	0	0	0	1
RightHandMiddle2	0	0	0	0	0	0	1
RightHandMiddle3	0	0	0	0	0	0	1
RightHandMiddle4	0	0	0	0	0	0	1
RightHandIndex1	0	0	0	0	0	0	1
RightHandIndex2	0	0	0	0	0	0	1
RightHandIndex3	0	0	0	0	0	0	1
RightHandIndex4	0	0	0	0	0	0	1
RightHandThumb1	0	0	0	0	0	0	1
RightHandThumb2	0	0	0	0	0	0	1
RightHandThumb3	0	0	0	0	0	0	1
RightHandThumb4	0	0	0	0	0	0	1
LeftUpLeg	0	0	0	0	0	0	1
LeftLeg	0	0	0	0	0	0	1
LeftFoot	0	0	0	0	0	0	1
LeftToeBase	0	0	0	0	0	0	1
RightUpLeg	0	0	0	0	0	0	1
RightLeg	0	0	0	0	0	0	1
RightFoot	0	0	0	0	0	0	1
RightToeBase	0	0	0	0	0	0	1
[Hips]
163	10.47364998	980.5321655	114.9155121	-1.755413651	-8.747315407	7.800230503	1.0
164	17.4580307	965.8283081	99.80030823	-2.147402048	-2.512557745	9.615702629	1.0
165	22.8146534	954.1575928	82.64932251	-0.7141970396	4.907245159	9.462065697	1.0
166	28.21500397	941.3479614	68.23054504	2.66522789	10.25257587	8.818727493	1.0
[Spine]
163	0	101.8159943	1.315000057	3.678017616	-2.831091881	2.883001089	1.0
164	0	101.8159943	1.315000057	5.830284595	-4.595880508	1.164374948	1.0
165	0	101.8159943	1.315000057	7.303859711	-6.28658247	1.300338745	1.0
166	0	101.8159943	1.315000057	7.229409695	-6.917684078	2.084912539	1.0
[Spine1]
163	0	100.8349991	-10.00800037	2.432256937	-0.3026510775	1.583861828	1.0
164	0	100.8349991	-10.00800037	3.38500762	-0.6041304469	1.37544477	1.0
165	0	100.8349991	-10.00800037	3.80805254	-0.8497476578	1.690403461	1.0
166	0	100.8349991	-10.00800037	3.604291916	-0.9122511148	2.063348055	1.0
[Spine2]
163	0	91	-13.73399925	2.430913687	-0.2641094029	1.565790772	1.0
164	0	91	-13.73399925	3.393838882	-0.529409647	1.338775992	1.0
165	0	91	-13.73399925	3.830933332	-0.7402706146	1.638583541	1.0
166	0	91	-13.73399925	3.633876324	-0.7918271422	2.008308887	1.0
[Neck]
163	0	166.7169952	-25.16200066	6.494317055	3.429687262	-2.812432528	1.0
164	0	166.7169952	-25.16200066	2.69656229	2.888771534	-4.035587788	1.0
165	0	166.7169952	-25.16200066	-0.4752341211	1.957119226	-5.141891003	1.0
166	0	166.7169952	-25.16200066	-2.673113823	0.7926054001	-4.35174942	1.0
[Head]
163	0	96.17900085	16.84999847	-13.63030148	15.03547287	-13.12118149	1.0
164	0	96.17900085	16.84999847	-16.73430061	10.6142683	-11.68890667	1.0
165	0	96.17900085	16.84999847	-19.40882683	5.65730381	-10.63660908	1.0
166	0	96.17900085	16.84999847	-21.6897831	1.984589696	-10.40427399	1.0
[LeftEye]
163	30.6760006	64.09500122	92.83599854	0	0	0	1.0
164	30.6760006	64.09500122	92.83599854	0	0	0	1.0
165	30.6760006	64.09500122	92.83599854	0	0	0	1.0
166	30.6760006	64.09500122	92.83599854	0	0	0	1.0
[RightEye]
163	-30.6760006	64.09500122	92.83499908	0	0	0	1.0
164	-30.6760006	64.09500122	92.83499908	0	0	0	1.0
165	-30.6760006	64.09500122	92.83499908	0	0	0	1.0
166	-30.6760006	64.09500122	92.83499908	0	0	0	1.0
[LeftShoulder]
163	45.70400238	109.4599991	-26.28000069	3.315829754	-21.89763832	-2.00052166	1.0
164	45.70400238	109.4599991	-26.28000069	3.261712551	-23.87560272	-1.908451676	1.0
165	45.70400238	109.4599991	-26.28000069	3.089107037	-26.49732971	-1.467858553	1.0
166	45.70400238	109.4599991	-26.28000069	2.550895452	-28.26112938	0.5591037869	1.0
[LeftArm]
163	105.923996	-5.24600029	-22.32099915	9.900578499	-29.48920631	-5.586096764	1.0
164	105.923996	-5.24600029	-22.32099915	5.64768362	-29.35768509	-2.700404406	1.0
165	105.923996	-5.24600029	-22.32099915	-0.5748127699	-30.10413361	-0.6873220205	1.0
166	105.923996	-5.24600029	-22.32099915	-7.555588722	-31.48088455	1.222229004	1.0
[LeftForeArm]
163	278.414978	-0.0009999999311	0	-7.531740994e-05	-94.89940643	-0.0001088869467	1.0
164	278.414978	-0.0009999999311	0	-6.311033212e-05	-96.32725525	-0.0001445312519	1.0
165	278.414978	-0.0009999999311	0	-1.831078589e-05	-98.13578033	-0.000163085715	1.0
166	278.414978	-0.0009999999311	0	3.051757813e-05	-101.0406876	-0.0002136230469	1.0
[LeftHand]
163	283.2879944	0	0	8.694521904	-20.59234047	-14.93499851	1.0
164	283.2879944	0	0	9.116200447	-21.42891502	-16.01575661	1.0
165	283.2879944	0	0	9.816457748	-23.18723869	-16.6865654	1.0
166	283.2879944	0	0	10.57128811	-24.84159279	-17.05784798	1.0
[LeftHandThumb1]
163	24.6609993	-15.75	26.8239994	-1.441469669	-8.319267273	8.653962135	1.0
164	24.6609993	-15.75	26.8239994	-1.441469908	-8.31926918	8.653968811	1.0
165	24.6609993	-15.75	26.8239994	-1.441470742	-8.319270134	8.653971672	1.0
166	24.6609993	-15.75	26.8239994	-1.44146955	-8.319268227	8.653962135	1.0
[LeftHandThumb2]
163	32.29800034	-18.64699936	18.64699936	-0.9986109138	48.03615952	-30.10183144	1.0
164	32.29800034	-18.64699936	18.64699936	-0.9986075163	48.03615952	-30.10183907	1.0
165	32.29800034	-18.64699936	18.64699936	-0.9986101389	48.03615952	-30.10184097	1.0
166	32.29800034	-18.64699936	18.64699936	-0.9986052513	48.0361557	-30.10181427	1.0
[LeftHandThumb3]
163	26.52600098	-15.31499958	15.31499958	7.522165298	50.02407837	24.38755798	1.0
164	26.52600098	-15.31499958	15.31499958	7.522165298	50.02407837	24.38755989	1.0
165	26.52600098	-15.31499958	15.31499958	7.522165298	50.02407837	24.38756371	1.0
166	26.52600098	-15.31499958	15.31499958	7.52218008	50.02410507	24.38755226	1.0
[LeftHandThumb4]
163	19.54599953	-11.28499985	11.28499985	0	0	0	1.0
164	19.54599953	-11.28499985	11.28499985	0	0	0	1.0
165	19.54599953	-11.28499985	11.28499985	0	0	0	1.0
166	19.54599953	-11.28499985	11.28499985	0	0	0	1.0
[LeftHandIndex1]
163	91.09299469	-5.170999527	22.60099792	-1.706925869	9.272184372	-79.12528229	1.0
164	91.09299469	-5.170999527	22.60099792	-1.706926107	9.272186279	-79.12528229	1.0
165	91.09299469	-5.170999527	22.60099792	-1.706925511	9.272184372	-79.12526703	1.0
166	91.09299469	-5.170999527	22.60099792	-1.706928015	9.272185326	-79.12528229	1.0
[LeftHandIndex2]
163	36.76399994	0	0	-5.084239006	5.778055668	-82.67964172	1.0
164	36.76399994	0	0	-5.084238052	5.778054714	-82.67964172	1.0
165	36.76399994	0	0	-5.084237099	5.778055191	-82.67964172	1.0
166	36.76399994	0	0	-5.08423996	5.778056622	-82.67962646	1.0
[LeftHandIndex3]
163	28.83100128	0	0	-6.449677467	5.791757107	-96.16447449	1.0
164	28.83100128	0	0	-6.449680805	5.791759968	-96.16447449	1.0
165	28.83100128	0	0	-6.449682236	5.791761398	-96.16448212	1.0
166	28.83100128	0	0	-6.449678898	5.791760921	-96.16449738	1.0
[LeftHandIndex4]
163	23.92700005	0	0	0	0	0	1.0
164	23.92700005	0	0	0	0	0	1.0
165	23.92700005	0	0	0	0	0	1.0
166	23.92700005	0	0	0	0	0	1.0
[LeftHandMiddle1]
163	95.33399963	0	0	-6.49475956	5.27325964	-74.30393982	1.0
164	95.33399963	0	0	-6.494756699	5.273262501	-74.30393982	1.0
165	95.33399963	0	0	-6.494755745	5.273263454	-74.30393219	1.0
166	95.33399963	0	0	-6.494757175	5.273261547	-74.30393219	1.0
[LeftHandMiddle2]
163	36.98199844	0	0	-7.583496094	5.554389	-107.5965881	1.0
164	36.98199844	0	0	-7.583496094	5.554386139	-107.596611	1.0
165	36.98199844	0	0	-7.583497047	5.554385662	-107.5966339	1.0
166	36.98199844	0	0	-7.583496094	5.554389954	-107.5965958	1.0
[LeftHandMiddle3]
163	29.50900078	0	0	-4.044083595	5.547124863	-72.16720581	1.0
164	29.50900078	0	0	-4.044084549	5.547125816	-72.16720581	1.0
165	29.50900078	0	0	-4.044086456	5.547127724	-72.16721344	1.0
166	29.50900078	0	0	-4.044086456	5.54712677	-72.16720581	1.0
[LeftHandMiddle4]
163	28.3390007	0	0	0	0	0	1.0
164	28.3390007	0	0	0	0	0	1.0
165	28.3390007	0	0	0	0	0	1.0
166	28.3390007	0	0	0	0	0	1.0
[LeftHandRing1]
163	91.04499817	-0.4390000105	-18.65100098	-7.093591213	2.507952929	-79.76667786	1.0
164	91.04499817	-0.4390000105	-18.65100098	-7.093590736	2.507953882	-79.76667786	1.0
165	91.04499817	-0.4390000105	-18.65100098	-7.093588352	2.507953405	-79.76668549	1.0
166	91.04499817	-0.4390000105	-18.65100098	-7.093591213	2.50795126	-79.76667023	1.0
[LeftHandRing2]
163	31.54000092	0	0	-6.249157906	5.809818268	-94.18070984	1.0
164	31.54000092	0	0	-6.249155998	5.809817791	-94.18070221	1.0
165	31.54000092	0	0	-6.249154091	5.809818745	-94.18068695	1.0
166	31.54000092	0	0	-6.249157906	5.809818745	-94.18070221	1.0
[LeftHandRing3]
163	29.37700081	0	0	-2.898619175	5.038873672	-59.79806519	1.0
164	29.37700081	0	0	-2.898618937	5.038873672	-59.798069	1.0
165	29.37700081	0	0	-2.898618221	5.038874626	-59.79807281	1.0
166	29.37700081	0	0	-2.898617506	5.038873672	-59.79807281	1.0
[LeftHandRing4]
163	26.47500038	0	0	0	0	0	1.0
164	26.47500038	0	0	0	0	0	1.0
165	26.47500038	0	0	0	0	0	1.0
166	26.47500038	0	0	0	0	0	1.0
[LeftHandPinky1]
163	80.77799988	-4.887000084	-38.06099701	-15.7428112	5.236331463	-84.96305084	1.0
164	80.77799988	-4.887000084	-38.06099701	-15.74281025	5.236331463	-84.96305084	1.0
165	80.77799988	-4.887000084	-38.06099701	-15.74281502	5.236326694	-84.96305847	1.0
166	80.77799988	-4.887000084	-38.06099701	-15.74281406	5.236330509	-84.96305084	1.0
[LeftHandPinky2]
163	36	0	0	-2.465525627	4.761472702	-54.73121643	1.0
164	36	0	0	-2.465525627	4.761472702	-54.73120499	1.0
165	36	0	0	-2.465524197	4.761472702	-54.73118591	1.0
166	36	0	0	-2.46552515	4.761473656	-54.73118973	1.0
[LeftHandPinky3]
163	21.14200211	0	0	-4.929653168	5.756196976	-81.14133453	1.0
164	21.14200211	0	0	-4.929653168	5.756196499	-81.14133453	1.0
165	21.14200211	0	0	-4.929653168	5.756194592	-81.14134216	1.0
166	21.14200211	0	0	-4.929654121	5.756195068	-81.14134216	1.0
[LeftHandPinky4]
163	19.75699997	0	0	0	0	0	1.0
164	19.75699997	0	0	0	0	0	1.0
165	19.75699997	0	0	0	0	0	1.0
166	19.75699997	0	0	0	0	0	1.0
[RightShoulder]
163	-45.70000076	109.4620056	-26.28000069	-18.31612587	14.47853756	-19.1244278	1.0
164	-45.70000076	109.4620056	-26.28000069	-18.30170059	17.51951599	-17.79743958	1.0
165	-45.70000076	109.4620056	-26.28000069	-17.85695457	16.92326546	-15.70125771	1.0
166	-45.70000076	109.4620056	-26.28000069	-16.96983719	12.42661572	-14.58919048	1.0
[RightArm]
163	-105.9280014	-5.248000145	-22.32099915	9.951875687	15.33509827	-37.95042419	1.0
164	-105.9280014	-5.248000145	-22.32099915	-5.55700922	-1.763124943	-36.81793594	1.0
165	-105.9280014	-5.248000145	-22.32099915	-29.73169518	-14.08960247	-32.38303757	1.0
166	-105.9280014	-5.248000145	-22.32099915	-57.32213974	-18.10085678	-28.00566864	1.0
[RightForeArm]
163	-278.414978	0	0	-7.776324492e-05	74.18439484	-7.247235044e-05	1.0
164	-278.414978	0	0	-6.977259181e-05	98.00447083	-6.465144543e-05	1.0
165	-278.414978	0	0	1.842777601e-05	112.727684	2.021675937e-05	1.0
166	-278.414978	0	0	-1.525878906e-05	115.0974197	0	1.0
[RightHand]
163	-283.2879944	0	0.0009999999311	-38.56454849	-9.550590515	-31.19546127	1.0
164	-283.2879944	0	0.0009999999311	-26.40921211	-7.992691994	-25.37675095	1.0
165	-283.2879944	0	0.0009999999311	-20.22329903	-4.588328362	-17.41353416	1.0
166	-283.2879944	0	0.0009999999311	-23.25039482	-4.068711281	-20.69072342	1.0
[RightHandPinky1]
163	-80.76699829	-4.885000229	-38.06000137	-15.18223572	-1.629490733	97.58630371	1.0
164	-80.76699829	-4.885000229	-38.06000137	-15.18224049	-1.629487753	97.58630371	1.0
165	-80.76699829	-4.885000229	-38.06000137	-15.18224335	-1.629491687	97.58631897	1.0
166	-80.76699829	-4.885000229	-38.06000137	-15.18224335	-1.629496574	97.5863266	1.0
[RightHandPinky2]
163	-36	0	0.0009999999311	-1.749822497	-3.626903534	51.5187912	1.0
164	-36	0	0.0009999999311	-1.749823809	-3.626906872	51.5187912	1.0
165	-36	0	0.0009999999311	-1.749822497	-3.626911163	51.51879883	1.0
166	-36	0	0.0009999999311	-1.749814868	-3.626903772	51.51878357	1.0
[RightHandPinky3]
163	-21.14200211	0	0	-1.867224097	-3.717090368	53.33225632	1.0
164	-21.14200211	0	0	-1.867222071	-3.717087507	53.33225632	1.0
165	-21.14200211	0	0	-1.867225289	-3.717077732	53.33226013	1.0
166	-21.14200211	0	0	-1.867229223	-3.71708107	53.33226776	1.0
[RightHandPinky4]
163	-19.75699997	0	0	0	0	0	1.0
164	-19.75699997	0	0	0	0	0	1.0
165	-19.75699997	0	0	0	0	0	1.0
166	-19.75699997	0	0	0	0	0	1.0
[RightHandRing1]
163	-91.03599548	-0.4390000105	-18.65100098	-7.065026283	-0.797406435	91.91007233	1.0
164	-91.03599548	-0.4390000105	-18.65100098	-7.065032482	-0.7974028587	91.91007233	1.0
165	-91.03599548	-0.4390000105	-18.65100098	-7.065038204	-0.79739815	91.91007996	1.0
166	-91.03599548	-0.4390000105	-18.65100098	-7.065040112	-0.7974045277	91.91007233	1.0
[RightHandRing2]
163	-31.54000092	0	0	-4.327744007	-4.620636463	86.24687958	1.0
164	-31.54000092	0	0	-4.3277421	-4.620639801	86.24687958	1.0
165	-31.54000092	0	0	-4.327740192	-4.620633602	86.24688721	1.0
166	-31.54000092	0	0	-4.327754021	-4.620635509	86.24687195	1.0
[RightHandRing3]
163	-29.37700081	0	0	-1.15696466	-3.063935995	41.36634827	1.0
164	-29.37700081	0	0	-1.156969309	-3.063935757	41.36634827	1.0
165	-29.37700081	0	0	-1.15697515	-3.063931465	41.36634064	1.0
166	-29.37700081	0	0	-1.156970143	-3.063933611	41.36634827	1.0
[RightHandRing4]
163	-26.47500038	0	0	0	0	0	1.0
164	-26.47500038	0	0	0	0	0	1.0
165	-26.47500038	0	0	0	0	0	1.0
166	-26.47500038	0	0	0	0	0	1.0
[RightHandMiddle1]
163	-95.32500458	0	0	-5.490185261	-4.098501205	73.57289124	1.0
164	-95.32500458	0	0	-5.490185738	-4.098491192	73.57289124	1.0
165	-95.32500458	0	0	-5.490189552	-4.098492146	73.57290649	1.0
166	-95.32500458	0	0	-5.490198135	-4.098497391	73.57289886	1.0
[RightHandMiddle2]
163	-36.98199844	0	0	-6.026568413	-4.415506363	107.5651321	1.0
164	-36.98199844	0	0	-6.026578903	-4.415503979	107.5651245	1.0
165	-36.98199844	0	0	-6.026586533	-4.415492058	107.5651093	1.0
166	-36.98199844	0	0	-6.026586056	-4.415495872	107.5651245	1.0
[RightHandMiddle3]
163	-29.50900078	0	0	-1.287460566	-3.207844734	43.75226974	1.0
164	-29.50900078	0	0	-1.287463307	-3.207853556	43.75226974	1.0
165	-29.50900078	0	0	-1.28746438	-3.207863092	43.75226212	1.0
166	-29.50900078	0	0	-1.287457466	-3.207858086	43.75226593	1.0
[RightHandMiddle4]
163	-28.3390007	0	0.0009999999311	0	0	0	1.0
164	-28.3390007	0	0.0009999999311	0	0	0	1.0
165	-28.3390007	0	0.0009999999311	0	0	0	1.0
166	-28.3390007	0	0.0009999999311	0	0	0	1.0
[RightHandIndex1]
163	-91.08300018	-5.167999744	22.60099792	2.643070698	-5.360726833	51.18567657	1.0
164	-91.08300018	-5.167999744	22.60099792	2.643069983	-5.360726833	51.18567657	1.0
165	-91.08300018	-5.167999744	22.60099792	2.643065691	-5.360719681	51.18568802	1.0
166	-91.08300018	-5.167999744	22.60099792	2.643069029	-5.360723019	51.18568802	1.0
[RightHandIndex2]
163	-36.76399994	0	0	-4.042243958	-4.593082905	82.6934433	1.0
164	-36.76399994	0	0	-4.042239189	-4.593082428	82.69342804	1.0
165	-36.76399994	0	0	-4.042247295	-4.593082428	82.69341278	1.0
166	-36.76399994	0	0	-4.042260647	-4.593069077	82.69342804	1.0
[RightHandIndex3]
163	-28.83100128	0	0	-5.126290321	-4.603967667	96.15283203	1.0
164	-28.83100128	0	0	-5.126294136	-4.603963375	96.15283203	1.0
165	-28.83100128	0	0	-5.126289368	-4.603954792	96.1528244	1.0
166	-28.83100128	0	0	-5.126297951	-4.603970528	96.15283966	1.0
[RightHandIndex4]
163	-23.92700005	0	0	0	0	0	1.0
164	-23.92700005	0	0	0	0	0	1.0
165	-23.92700005	0	0	0	0	0	1.0
166	-23.92700005	0	0	0	0	0	1.0
[RightHandThumb1]
163	-24.64799881	-15.72700024	26.82600021	-2.388247252	10.16859055	-8.287032127	1.0
164	-24.64799881	-15.72700024	26.82600021	-2.388246059	10.16859341	-8.287032127	1.0
165	-24.64799881	-15.72700024	26.82600021	-2.388238668	10.16858959	-8.287032127	1.0
166	-24.64799881	-15.72700024	26.82600021	-2.388241768	10.16859531	-8.287032127	1.0
[RightHandThumb2]
163	-32.29800034	-18.64699936	18.64699936	7.070498943	-37.46694565	0.6013926864	1.0
164	-32.29800034	-18.64699936	18.64699936	7.070489883	-37.46694565	0.6013964415	1.0
165	-32.29800034	-18.64699936	18.64699936	7.070492268	-37.46695328	0.6013870239	1.0
166	-32.29800034	-18.64699936	18.64699936	7.070504189	-37.4669342	0.6013810039	1.0
[RightHandThumb3]
163	-26.52600098	-15.31399918	15.31399918	3.291630745	-34.41184616	-26.10048866	1.0
164	-26.52600098	-15.31399918	15.31399918	3.291626453	-34.41184616	-26.10049438	1.0
165	-26.52600098	-15.31399918	15.31399918	3.291618586	-34.41184235	-26.10048866	1.0
166	-26.52600098	-15.31399918	15.31399918	3.291627169	-34.41184616	-26.10048103	1.0
[RightHandThumb4]
163	-19.54599953	-11.28499985	11.28499985	0	0	0	1.0
164	-19.54599953	-11.28499985	11.28499985	0	0	0	1.0
165	-19.54599953	-11.28499985	11.28499985	0	0	0	1.0
166	-19.54599953	-11.28499985	11.28499985	0	0	0	1.0
[LeftUpLeg]
163	82.07800293	-67.51699829	-15.99599934	-9.535512924	18.08537674	10.87345886	1.0
164	82.07800293	-67.51699829	-15.99599934	-16.3398838	20.61374092	8.632454872	1.0
165	82.07800293	-67.51699829	-15.99599934	-28.3772316	21.46553993	7.335978985	1.0
166	82.07800293	-67.51699829	-15.99599934	-49.45999908	21.95363617	6.63525486	1.0
[LeftLeg]
163	0	-443.7049866	2.845999956	21.891119	6.591694832	3.236881971	1.0
164	0	-443.7049866	2.845999956	29.35595703	0.9898484945	0.5778989792	1.0
165	0	-443.7049866	2.845999956	40.57139587	-3.484958172	-3.60034132	1.0
166	0	-443.7049866	2.845999956	63.11347198	-2.774559259	-6.692395687	1.0
[LeftFoot]
163	0	-444.2789917	-29.8219986	3.096385002	7.947216511	-16.6857357	1.0
164	0	-444.2789917	-29.8219986	8.138092995	3.495158672	-17.08562469	1.0
165	0	-444.2789917	-29.8219986	15.32996559	1.260015607	-15.93186092	1.0
166	0	-444.2789917	-29.8219986	17.31389427	2.493005037	-22.95985222	1.0
[LeftToeBase]
163	0	-87.28699493	107.1060028	-11.34155464	0.02839073539	0.09058164805	1.0
164	0	-87.28699493	107.1060028	-15.20042419	-3.20407139e-06	-5.324767699e-06	1.0
165	0	-87.28699493	107.1060028	-18.59228325	-9.65453296e-07	1.664687943e-06	1.0
166	0	-87.28699493	107.1060028	-11.05823421	1.582085247e-06	2.975696361e-06	1.0
[RightUpLeg]
163	-82.07800293	-67.51699829	-15.99599934	-20.56977654	-3.0709939	-9.364059448	1.0
164	-82.07800293	-67.51699829	-15.99599934	-18.24227905	-3.775011778	-9.032896996	1.0
165	-82.07800293	-67.51699829	-15.99599934	-19.17152214	-7.873383522	-8.020442009	1.0
166	-82.07800293	-67.51699829	-15.99599934	-24.03430557	-14.89545155	-7.226781368	1.0
[RightLeg]
163	0	-443.7049866	2.861999989	51.20027542	-4.958491802	-6.723801613	1.0
164	0	-443.7049866	2.861999989	49.91869736	-5.745698929	-8.316703796	1.0
165	0	-443.7049866	2.861999989	50.85120773	-4.246302605	-7.368534565	1.0
166	0	-443.7049866	2.861999989	53.73821259	-1.629286408	-4.830277443	1.0
[RightFoot]
163	0	-444.2770081	-29.83799934	-12.58270454	-3.097997189	14.45513821	1.0
164	0	-444.2770081	-29.83799934	-23.76693535	-9.832879066	8.210677147	1.0
165	0	-444.2770081	-29.83799934	-30.55160332	-16.12525177	8.605835915	1.0
166	0	-444.2770081	-29.83799934	-31.77825737	-16.53182793	10.96191406	1.0
[RightToeBase]
163	0	-87.28699493	107.1060028	-14.59097672	-0.5749754906	-2.391259193	1.0
164	0	-87.28699493	107.1060028	-8.215093613	0.09826675802	0.4051265419	1.0
165	0	-87.28699493	107.1060028	-2.251467943	-4.923970482e-05	0.02029173262	1.0
166	0	-87.28699493	107.1060028	0.06952164322	-0.000284220092	0.1207726672	1.0
[EndOfFile]
